<svg width="48" height="48" viewBox="0 0 48 48" fill="none" xmlns="http://www.w3.org/2000/svg">
<rect width="48" height="48" rx="8" fill="#5FA939" fill-opacity="0.1"/>
<path d="M19.9834 27.7908L19.9 27.8048V27.8894V28.6667C19.9 30.2845 20.5427 31.8361 21.6867 32.98C22.8306 34.124 24.3822 34.7667 26 34.7667C27.6178 34.7667 29.1694 34.124 30.3134 32.98C31.4573 31.8361 32.1 30.2845 32.1 28.6667V26.44V26.3693L32.0333 26.3457C31.1656 26.0391 30.4342 25.4355 29.9685 24.6417C29.5027 23.8479 29.3326 22.915 29.4882 22.0079C29.6437 21.1008 30.115 20.2779 30.8186 19.6846C31.5223 19.0914 32.413 18.766 33.3334 18.766C34.2537 18.766 35.1444 19.0914 35.8481 19.6846C36.5517 20.2779 37.023 21.1008 37.1785 22.0079C37.3341 22.915 37.164 23.8479 36.6982 24.6417C36.2325 25.4355 35.5011 26.0391 34.6334 26.3457L34.5667 26.3693V26.44V28.6667C34.5667 30.9387 33.6641 33.1177 32.0576 34.7242C30.451 36.3308 28.272 37.2334 26 37.2334C23.728 37.2334 21.549 36.3308 19.9425 34.7242C18.3359 33.1177 17.4334 30.9387 17.4334 28.6667V27.8894V27.8048L17.35 27.7908C15.509 27.4796 13.8377 26.5264 12.6326 25.1002C11.4274 23.6741 10.7664 21.8672 10.7667 20V20V13.3334C10.7667 12.6526 11.0371 11.9998 11.5184 11.5184C11.9998 11.0371 12.6526 10.7667 13.3334 10.7667H14.6667C14.9938 10.7667 15.3075 10.8966 15.5388 11.1279C15.7701 11.3592 15.9 11.6729 15.9 12C15.9 12.3271 15.7701 12.6408 15.5388 12.8721C15.3075 13.1034 14.9938 13.2334 14.6667 13.2334H13.3334H13.2334V13.3334V20C13.2334 21.441 13.8058 22.823 14.8247 23.842C15.8437 24.8609 17.2257 25.4334 18.6667 25.4334C20.1077 25.4334 21.4897 24.8609 22.5086 23.842C23.5276 22.823 24.1 21.441 24.1 20V13.3334V13.2334H24H22.6667C22.3396 13.2334 22.0259 13.1034 21.7946 12.8721C21.5633 12.6408 21.4334 12.3271 21.4334 12C21.4334 11.6729 21.5633 11.3592 21.7946 11.1279C22.0259 10.8966 22.3396 10.7667 22.6667 10.7667H24C24.6807 10.7667 25.3336 11.0371 25.8149 11.5184C26.2963 11.9998 26.5667 12.6526 26.5667 13.3334V20C26.567 21.8672 25.9059 23.6741 24.7008 25.1002C23.4957 26.5264 21.8244 27.4796 19.9834 27.7908ZM33.3334 24.1C33.7135 24.1 34.0781 23.949 34.3469 23.6802C34.6157 23.4114 34.7667 23.0468 34.7667 22.6667C34.7667 22.2865 34.6157 21.922 34.3469 21.6532C34.0781 21.3844 33.7135 21.2334 33.3334 21.2334C32.9532 21.2334 32.5886 21.3844 32.3198 21.6532C32.051 21.922 31.9 22.2865 31.9 22.6667C31.9 23.0468 32.051 23.4114 32.3198 23.6802C32.5886 23.949 32.9532 24.1 33.3334 24.1Z" fill="#5FA939" stroke="#EAF2E8" stroke-width="0.2"/>
</svg>
