<svg width="48" height="48" viewBox="0 0 48 48" fill="none" xmlns="http://www.w3.org/2000/svg">
<rect width="48" height="48" rx="8" fill="#007DFC" fill-opacity="0.1"/>
<path d="M14.7555 28.2667C14.7555 28.0781 14.8304 27.8972 14.9638 27.7638C15.0971 27.6305 15.278 27.5556 15.4666 27.5556H25.4222C25.6108 27.5556 25.7916 27.6305 25.925 27.7638C26.0584 27.8972 26.1333 28.0781 26.1333 28.2667C26.1333 28.4553 26.0584 28.6361 25.925 28.7695C25.7916 28.9029 25.6108 28.9778 25.4222 28.9778H15.4666C15.278 28.9778 15.0971 28.9029 14.9638 28.7695C14.8304 28.6361 14.7555 28.4553 14.7555 28.2667ZM15.4666 31.1111C15.278 31.1111 15.0971 31.186 14.9638 31.3194C14.8304 31.4528 14.7555 31.6336 14.7555 31.8222C14.7555 32.0108 14.8304 32.1917 14.9638 32.3251C15.0971 32.4584 15.278 32.5333 15.4666 32.5333H25.4222C25.6108 32.5333 25.7916 32.4584 25.925 32.3251C26.0584 32.1917 26.1333 32.0108 26.1333 31.8222C26.1333 31.6336 26.0584 31.4528 25.925 31.3194C25.7916 31.186 25.6108 31.1111 25.4222 31.1111H15.4666ZM16.8888 21.8667V19.7333H18.311V21.8667H20.4444V23.2889H18.311V25.4222H16.8888V23.2889H14.7555V21.8667H16.8888Z" fill="#007DFC" stroke="#007DFC" stroke-width="0.4"/>
<path fill-rule="evenodd" clip-rule="evenodd" d="M17.6 11.2C17.0342 11.2 16.4915 11.4248 16.0915 11.8249C15.6914 12.2249 15.4666 12.7676 15.4666 13.3333H13.3333C12.7675 13.3333 12.2249 13.5581 11.8248 13.9582C11.4247 14.3583 11.2 14.9009 11.2 15.4667V34.6667C11.2 35.2325 11.4247 35.7751 11.8248 36.1752C12.2249 36.5753 12.7675 36.8 13.3333 36.8H27.5555C28.1213 36.8 28.6639 36.5753 29.064 36.1752C29.4641 35.7751 29.6888 35.2325 29.6888 34.6667V15.4667C29.6888 14.9009 29.4641 14.3583 29.064 13.9582C28.6639 13.5581 28.1213 13.3333 27.5555 13.3333H25.4222C25.4222 12.7676 25.1974 12.2249 24.7973 11.8249C24.3973 11.4248 23.8546 11.2 23.2888 11.2H17.6ZM23.2888 15.4667C23.4774 15.4667 23.6583 15.3918 23.7917 15.2584C23.925 15.125 24 14.9442 24 14.7556V13.3333C24 13.1447 23.925 12.9639 23.7917 12.8305C23.6583 12.6972 23.4774 12.6222 23.2888 12.6222H17.6C17.4114 12.6222 17.2305 12.6972 17.0971 12.8305C16.9638 12.9639 16.8888 13.1447 16.8888 13.3333V14.7556C16.8888 14.9442 16.9638 15.125 17.0971 15.2584C17.2305 15.3918 17.4114 15.4667 17.6 15.4667H23.2888ZM15.4666 14.7556C15.4666 15.3214 15.6914 15.864 16.0915 16.2641C16.4915 16.6641 17.0342 16.8889 17.6 16.8889H23.2888C23.8546 16.8889 24.3973 16.6641 24.7973 16.2641C25.1974 15.864 25.4222 15.3214 25.4222 14.7556H27.5555C27.7441 14.7556 27.925 14.8305 28.0583 14.9638C28.1917 15.0972 28.2666 15.2781 28.2666 15.4667V34.6667C28.2666 34.8553 28.1917 35.0362 28.0583 35.1695C27.925 35.3029 27.7441 35.3778 27.5555 35.3778H13.3333C13.1447 35.3778 12.9638 35.3029 12.8305 35.1695C12.6971 35.0362 12.6222 34.8553 12.6222 34.6667V15.4667C12.6222 15.2781 12.6971 15.0972 12.8305 14.9638C12.9638 14.8305 13.1447 14.7556 13.3333 14.7556H15.4666ZM32.5333 19.0222C32.5333 18.4564 32.758 17.9138 33.1581 17.5137C33.5582 17.1137 34.1008 16.8889 34.6666 16.8889C35.2324 16.8889 35.775 17.1137 36.1751 17.5137C36.5752 17.9138 36.8 18.4564 36.8 19.0222V33.4599L34.6666 36.6599L32.5333 33.4599V19.0222ZM34.6666 18.3111C34.478 18.3111 34.2971 18.386 34.1638 18.5194C34.0304 18.6528 33.9555 18.8336 33.9555 19.0222V20.4445H35.3777V19.0222C35.3777 18.8336 35.3028 18.6528 35.1695 18.5194C35.0361 18.386 34.8552 18.3111 34.6666 18.3111ZM34.6666 34.0957L35.3777 33.029V21.8667H33.9555V33.029L34.6666 34.0957Z" fill="#007DFC" stroke="#007DFC" stroke-width="0.4"/>
</svg>
