<svg width="48" height="48" viewBox="0 0 48 48" fill="none" xmlns="http://www.w3.org/2000/svg">
<rect width="48" height="48" rx="8" fill="#E78514" fill-opacity="0.1"/>
<path d="M13.3333 37.3334V36C13.3333 33.5067 13.3333 32.2614 13.8693 31.3334C14.2204 30.7253 14.7253 30.2204 15.3333 29.8694C16.2613 29.3334 17.5067 29.3334 20 29.3334L24 34.6667L28 29.3334C30.4933 29.3334 31.7387 29.3334 32.6667 29.8694C33.2747 30.2204 33.7796 30.7253 34.1307 31.3334C34.6667 32.2614 34.6667 33.5067 34.6667 36V37.3334M29.2493 18.6667L30.6067 13.152C30.9173 11.8894 29.9773 10.6667 28.6973 10.6667H19.3027C18.0227 10.6667 17.0827 11.8894 17.3933 13.152L18.7507 18.6667M29.2493 18.6667V21.3334C29.2493 24.2787 26.9 26.6667 24 26.6667C21.1 26.6667 18.7507 24.2787 18.7507 21.3334V18.6667M29.2493 18.6667H18.7507M24 13.3334V16M25.3333 14.6667H22.6667" stroke="#E78514" stroke-width="2.1" stroke-linecap="round" stroke-linejoin="round"/>
</svg>
