<svg width="15" height="16" viewBox="0 0 15 16" fill="none" xmlns="http://www.w3.org/2000/svg">
<path d="M5.72498 7.29375C5.66248 7.2875 5.58748 7.2875 5.51873 7.29375C4.03123 7.24375 2.84998 6.025 2.84998 4.525C2.84998 2.99375 4.08748 1.75 5.62498 1.75C7.15623 1.75 8.39998 2.99375 8.39998 4.525C8.39373 6.025 7.21248 7.24375 5.72498 7.29375Z" stroke="#5B5B5B" stroke-width="1.2" stroke-linecap="round" stroke-linejoin="round"/>
<path d="M10.2562 3C11.4687 3 12.4437 3.98125 12.4437 5.1875C12.4437 6.36875 11.5062 7.33125 10.3375 7.375C10.2875 7.36875 10.2312 7.36875 10.175 7.375" stroke="#5B5B5B" stroke-width="1.2" stroke-linecap="round" stroke-linejoin="round"/>
<path d="M2.60001 9.6C1.08751 10.6125 1.08751 12.2625 2.60001 13.2687C4.31876 14.4187 7.13751 14.4187 8.85626 13.2687C10.3688 12.2562 10.3688 10.6063 8.85626 9.6C7.14376 8.45625 4.32501 8.45625 2.60001 9.6Z" stroke="#5B5B5B" stroke-width="1.2" stroke-linecap="round" stroke-linejoin="round"/>
<path d="M11.4625 13C11.9125 12.9062 12.3375 12.725 12.6875 12.4562C13.6625 11.725 13.6625 10.5187 12.6875 9.7875C12.3438 9.525 11.925 9.35 11.4813 9.25" stroke="#5B5B5B" stroke-width="1.2" stroke-linecap="round" stroke-linejoin="round"/>
</svg>
