<svg width="48" height="48" viewBox="0 0 48 48" fill="none" xmlns="http://www.w3.org/2000/svg">
<rect width="48" height="48" rx="8" fill="#C61BDC" fill-opacity="0.1"/>
<path d="M29.166 16.478C28.9008 16.478 28.6464 16.5834 28.4589 16.7709C28.2714 16.9584 28.166 17.2128 28.166 17.478C28.166 17.7432 28.2714 17.9976 28.4589 18.1851C28.6464 18.3727 28.9008 18.478 29.166 18.478C29.65 18.478 30.05 18.622 30.34 18.878C30.624 19.132 30.89 19.572 30.966 20.334C30.9791 20.4647 31.0179 20.5915 31.08 20.7072C31.1421 20.8229 31.2265 20.9252 31.3281 21.0083C31.4298 21.0914 31.5469 21.1537 31.6726 21.1915C31.7984 21.2294 31.9303 21.2421 32.061 21.229C32.1917 21.2159 32.3185 21.1771 32.4342 21.115C32.5499 21.0529 32.6522 20.9686 32.7353 20.8669C32.8184 20.7652 32.8807 20.6481 32.9185 20.5224C32.9564 20.3967 32.9691 20.2647 32.956 20.134C32.84 18.968 32.392 18.03 31.67 17.386C30.976 16.7847 30.0841 16.4613 29.166 16.478ZM22.214 13.594C21.4998 12.9989 20.6609 12.5719 19.7594 12.3448C18.8579 12.1177 17.9169 12.0963 17.006 12.282C15.37 12.602 13.926 13.506 12.968 14.542L12.964 14.548C11.918 15.696 10.848 17.188 10.756 19.362V19.366C10.716 20.434 10.868 21.992 11.71 23.184L11.722 23.198C12.614 24.408 13.112 25.116 13.362 25.8C13.648 26.584 13.648 27.376 13.648 28.554V28.65C13.658 29.79 13.9 31.364 14.482 32.796C15.058 34.208 16.048 35.676 17.68 36.27L17.72 36.284L17.764 36.296C18.71 36.548 19.616 36.464 20.304 35.822C20.904 35.262 21.144 34.434 21.28 33.716C21.404 33.054 21.466 32.284 21.528 31.536L21.55 31.254C21.622 30.39 21.704 29.534 21.872 28.73V28.724C22.326 26.518 22.976 26.172 23.226 26.094C23.966 25.904 24.41 26.004 24.698 26.168C25.01 26.346 25.298 26.688 25.548 27.252C26.064 28.422 26.216 30.08 26.356 31.616C26.476 33.142 26.796 34.546 27.424 35.456C27.754 35.934 28.228 36.358 28.876 36.496C29.53 36.638 30.16 36.444 30.706 36.096C32.694 34.826 33.834 32.204 34.134 28.786C34.274 27.164 34.438 26.44 34.68 25.856C34.804 25.556 34.96 25.268 35.18 24.89L35.392 24.53C35.5733 24.23 35.78 23.874 36.012 23.462L36.016 23.46C36.448 22.684 37.16 21.264 37.242 19.6C37.328 17.864 36.722 15.954 34.692 14.31C32.76 12.742 30.948 12.164 29.318 12.25C27.704 12.334 26.414 13.062 25.492 13.84L25.46 13.868L25.432 13.896C24.556 14.772 24.186 14.886 23.986 14.876C23.742 14.866 23.29 14.67 22.298 13.668L22.258 13.628L22.214 13.594ZM12.754 19.446C12.818 17.96 13.52 16.906 14.44 15.898C15.14 15.142 16.212 14.476 17.388 14.246C18.0044 14.1173 18.6419 14.1288 19.2533 14.2797C19.8647 14.4307 20.4343 14.7172 20.92 15.118C21.86 16.064 22.804 16.828 23.9 16.876C25.04 16.924 25.964 16.188 26.814 15.342C27.508 14.762 28.386 14.302 29.422 14.246C30.458 14.192 31.798 14.538 33.432 15.862C34.95 17.092 35.3 18.382 35.244 19.502C35.186 20.688 34.664 21.774 34.27 22.482C34.0056 22.9535 33.7329 23.4202 33.452 23.882C33.22 24.282 33.01 24.662 32.832 25.09C32.472 25.962 32.288 26.934 32.14 28.61C31.862 31.784 30.842 33.636 29.63 34.41C29.5474 34.4651 29.4571 34.5075 29.362 34.536C29.316 34.546 29.298 34.542 29.296 34.542C29.294 34.542 29.276 34.538 29.24 34.512C29.1734 34.4576 29.116 34.3927 29.07 34.32C28.75 33.86 28.462 32.896 28.35 31.454V31.442L28.336 31.292C28.208 29.872 28.032 27.928 27.378 26.446C27.032 25.66 26.508 24.896 25.686 24.428C24.842 23.948 23.834 23.868 22.706 24.164L22.69 24.168L22.676 24.172C21.336 24.562 20.42 25.86 19.916 28.322C19.718 29.26 19.628 30.226 19.556 31.088L19.536 31.368C19.4949 32.0313 19.4209 32.6921 19.314 33.348C19.194 33.996 19.04 34.264 18.936 34.36C18.914 34.38 18.804 34.494 18.322 34.376C17.486 34.052 16.812 33.214 16.336 32.042C15.9097 30.9555 15.6768 29.8028 15.648 28.636V28.428C15.648 27.364 15.652 26.242 15.24 25.116C14.874 24.108 14.178 23.158 13.338 22.02C12.874 21.36 12.718 20.34 12.754 19.446Z" fill="#C61BDC"/>
</svg>
