<svg width="20" height="20" viewBox="0 0 20 20" fill="none" xmlns="http://www.w3.org/2000/svg">
<path d="M15.4167 7.49967C15.4167 6.99967 15.025 6.23301 14.4417 5.60801C13.9083 5.03301 13.2 4.58301 12.5 4.58301" stroke="#556C84" stroke-width="1.5" stroke-linecap="round" stroke-linejoin="round"/>
<path d="M18.3333 7.49984C18.3333 4.27484 15.725 1.6665 12.5 1.6665" stroke="#556C84" stroke-width="1.5" stroke-linecap="round" stroke-linejoin="round"/>
<path fill-rule="evenodd" clip-rule="evenodd" d="M2.1875 4.5625C2.1875 3.93261 2.43772 3.32852 2.88312 2.88312C3.32852 2.43772 3.93261 2.1875 4.5625 2.1875H5.64867C6.3295 2.1875 6.92325 2.65142 7.08871 3.31167L7.9635 6.81321C8.03439 7.09662 8.02007 7.39466 7.92234 7.66997C7.82461 7.94528 7.6478 8.18564 7.41408 8.36092L6.39046 9.12883C6.28358 9.20879 6.26063 9.32596 6.29071 9.4075C6.73751 10.6226 7.44306 11.7261 8.3585 12.6415C9.27394 13.5569 10.3774 14.2625 11.5925 14.7093C11.674 14.7394 11.7904 14.7164 11.8712 14.6095L12.6391 13.5859C12.8144 13.3522 13.0547 13.1754 13.33 13.0777C13.6053 12.9799 13.9034 12.9656 14.1868 13.0365L17.6883 13.9113C18.3486 14.0768 18.8125 14.6705 18.8125 15.3521V16.4375C18.8125 17.0674 18.5623 17.6715 18.1169 18.1169C17.6715 18.5623 17.0674 18.8125 16.4375 18.8125H14.6562C7.77033 18.8125 2.1875 13.2297 2.1875 6.34375V4.5625Z" fill="#556C84"/>
</svg>
