<svg width="18" height="18" viewBox="0 0 18 18" fill="none" xmlns="http://www.w3.org/2000/svg">
<path d="M16.2 0.200195H1.8C0.915997 0.200195 0.199997 0.916195 0.199997 1.8002V16.2002C0.199997 17.0842 0.915997 17.8002 1.8 17.8002H16.2C17.084 17.8002 17.8 17.0842 17.8 16.2002V1.8002C17.8 0.916195 17.084 0.200195 16.2 0.200195ZM5.7632 14.6002H3.4032V7.0066H5.7632V14.6002ZM4.5592 5.92099C3.7984 5.92099 3.1832 5.30419 3.1832 4.54499C3.1832 3.78579 3.7992 3.1698 4.5592 3.1698C5.3176 3.1698 5.9344 3.78659 5.9344 4.54499C5.9344 5.30419 5.3176 5.92099 4.5592 5.92099ZM14.6032 14.6002H12.2448V10.9074C12.2448 10.0266 12.2288 8.89379 11.0184 8.89379C9.7904 8.89379 9.6016 9.85299 9.6016 10.8434V14.6002H7.2432V7.0066H9.5072V8.0442H9.5392C9.8544 7.4474 10.624 6.8178 11.772 6.8178C14.1616 6.8178 14.6032 8.3906 14.6032 10.4354V14.6002Z" fill="#556C84"/>
</svg>
