<svg width="22" height="22" viewBox="0 0 22 22" fill="none" xmlns="http://www.w3.org/2000/svg">
<path d="M21.08 3.31992V18.6799C21.08 20.0033 20.0034 21.0799 18.68 21.0799H3.32C1.99664 21.0799 0.92 20.0033 0.92 18.6799V3.31992C0.92 1.99656 1.99664 0.919922 3.32 0.919922H18.68C20.0034 0.919922 21.08 1.99656 21.08 3.31992ZM15.1011 16.2382C16.4024 14.9383 16.3659 13.3135 15.9392 12.3166C15.68 11.7142 15.2154 11.1982 14.5962 10.8247L14.4891 10.7585C14.3307 10.6586 14.1968 10.5785 13.987 10.4983C13.9832 10.3649 13.975 10.2314 13.9592 10.111C13.676 7.92168 12.2547 7.45416 11.109 7.44696C10.075 7.44696 9.21488 7.88856 8.68784 8.69112L9.4904 9.21816C9.84368 8.68008 10.3885 8.40744 11.1061 8.40744C12.2422 8.41464 12.8461 8.99448 13.0069 10.2319C12.4592 10.121 11.8424 10.0812 11.1795 10.1201C9.296 10.2286 8.51024 11.3638 8.56736 12.4414C8.63168 13.6346 9.6608 14.4679 11.071 14.4679C11.1334 14.4679 11.1954 14.4665 11.2554 14.4626C12.3579 14.4022 13.7058 13.8434 13.9482 11.5524C13.9582 11.5586 13.9678 11.5649 13.9779 11.5711L14.0994 11.6465C14.5467 11.9162 14.8774 12.2786 15.0565 12.6953C15.3651 13.4158 15.3838 14.598 14.4219 15.559C13.5906 16.3894 12.5922 16.7489 11.0926 16.7599C9.42704 16.7474 8.16512 16.2103 7.34288 15.1639C6.5768 14.1905 6.18128 12.7865 6.1664 10.999C6.18128 9.20952 6.5768 7.80888 7.34288 6.83592C8.1656 5.78904 9.4304 5.2524 11.0936 5.23992C12.7698 5.2524 14.0528 5.79144 14.9067 6.84216C15.3214 7.3524 15.6387 7.99848 15.8499 8.7612L16.7754 8.50584C16.5286 7.614 16.1509 6.85032 15.6517 6.2364C14.6082 4.95288 13.0774 4.2948 11.0936 4.27992C9.116 4.2948 7.60016 4.9548 6.58784 6.24264C5.68784 7.38648 5.22272 8.9844 5.20592 10.9994C5.22272 13.0121 5.68784 14.6134 6.58784 15.7577C7.60016 17.045 9.1136 17.7055 11.0926 17.7199C12.8514 17.707 14.0878 17.25 15.1011 16.2382ZM12.9166 11.1943C12.9502 11.202 12.9829 11.2092 13.0136 11.2164C13.0112 11.2538 13.0088 11.2865 13.0064 11.3114C12.8557 13.1969 11.9048 13.4662 11.2011 13.5046C11.1574 13.507 11.1142 13.5084 11.071 13.5084C10.1826 13.5084 9.56192 13.0591 9.5264 12.3905C9.4952 11.8058 9.92768 11.154 11.2357 11.0791C11.3782 11.0705 11.5184 11.0662 11.6557 11.0662C12.116 11.0657 12.5403 11.1089 12.9166 11.1943Z" fill="#556C84"/>
</svg>
