<svg width="22" height="16" viewBox="0 0 22 16" fill="none" xmlns="http://www.w3.org/2000/svg">
<path d="M20.5513 2.95982C20.36 1.9042 19.4488 1.13545 18.3913 0.895449C16.8088 0.559824 13.88 0.319824 10.7113 0.319824C7.54438 0.319824 4.56875 0.559824 2.98438 0.895449C1.92875 1.13545 1.01563 1.85545 0.824377 2.95982C0.631253 4.15982 0.440002 5.83982 0.440002 7.99982C0.440002 10.1598 0.631253 11.8398 0.871253 13.0398C1.06438 14.0954 1.97563 14.8642 3.03125 15.1042C4.71125 15.4398 7.59125 15.6798 10.76 15.6798C13.9288 15.6798 16.8088 15.4398 18.4888 15.1042C19.5444 14.8642 20.4556 14.1442 20.6488 13.0398C20.84 11.8398 21.08 10.1111 21.1288 7.99982C21.0313 5.83982 20.7913 4.15982 20.5513 2.95982ZM8.12 11.3598V4.63982L13.9756 7.99982L8.12 11.3598Z" fill="#556C84"/>
</svg>
