<svg width="32" height="32" viewBox="0 0 32 32" fill="none" xmlns="http://www.w3.org/2000/svg">
<rect width="32" height="32" rx="16" fill="#FF5C00"/>
<path d="M16 12.6055C17.7227 12.6055 19.1445 14.0273 19.1445 15.75C19.1445 17.5 17.7227 18.8945 16 18.8945C14.25 18.8945 12.8555 17.5 12.8555 15.75C12.8555 14.0273 14.25 12.6055 16 12.6055ZM16 17.8008C17.1211 17.8008 18.0234 16.8984 18.0234 15.75C18.0234 14.6289 17.1211 13.7266 16 13.7266C14.8516 13.7266 13.9492 14.6289 13.9492 15.75C13.9492 16.8984 14.8789 17.8008 16 17.8008ZM19.9922 12.4961C19.9922 12.9062 19.6641 13.2344 19.2539 13.2344C18.8438 13.2344 18.5156 12.9062 18.5156 12.4961C18.5156 12.0859 18.8438 11.7578 19.2539 11.7578C19.6641 11.7578 19.9922 12.0859 19.9922 12.4961ZM22.0703 13.2344C22.125 14.2461 22.125 17.2812 22.0703 18.293C22.0156 19.2773 21.7969 20.125 21.0859 20.8633C20.375 21.5742 19.5 21.793 18.5156 21.8477C17.5039 21.9023 14.4688 21.9023 13.457 21.8477C12.4727 21.793 11.625 21.5742 10.8867 20.8633C10.1758 20.125 9.95703 19.2773 9.90234 18.293C9.84766 17.2812 9.84766 14.2461 9.90234 13.2344C9.95703 12.25 10.1758 11.375 10.8867 10.6641C11.625 9.95312 12.4727 9.73438 13.457 9.67969C14.4688 9.625 17.5039 9.625 18.5156 9.67969C19.5 9.73438 20.375 9.95312 21.0859 10.6641C21.7969 11.375 22.0156 12.25 22.0703 13.2344ZM20.7578 19.3594C21.0859 18.5664 21.0039 16.6523 21.0039 15.75C21.0039 14.875 21.0859 12.9609 20.7578 12.1406C20.5391 11.6211 20.1289 11.1836 19.6094 10.9922C18.7891 10.6641 16.875 10.7461 16 10.7461C15.0977 10.7461 13.1836 10.6641 12.3906 10.9922C11.8438 11.2109 11.4336 11.6211 11.2148 12.1406C10.8867 12.9609 10.9688 14.875 10.9688 15.75C10.9688 16.6523 10.8867 18.5664 11.2148 19.3594C11.4336 19.9062 11.8438 20.3164 12.3906 20.5352C13.1836 20.8633 15.0977 20.7812 16 20.7812C16.875 20.7812 18.7891 20.8633 19.6094 20.5352C20.1289 20.3164 20.5664 19.9062 20.7578 19.3594Z" fill="white"/>
</svg>
